<svg width="1246" height="259" viewBox="0 0 1246 259" fill="none" xmlns="http://www.w3.org/2000/svg">
<line y1="258.5" x2="1246" y2="258.5" stroke="#333138"/>
<line y1="0.5" x2="1246" y2="0.5" stroke="#333138" stroke-dasharray="6 6"/>
<line y1="129.5" x2="1246" y2="129.5" stroke="#333138" stroke-dasharray="6 6"/>
<line y1="65.5" x2="1246" y2="65.5" stroke="#333138" stroke-dasharray="6 6"/>
<line y1="193.5" x2="1246" y2="193.5" stroke="#333138" stroke-dasharray="6 6"/>
<path d="M3.48535 5.20312L8.20508 16.4971L12.9424 5.20312H14.3838V18H13.3027V12.4277L13.3906 6.71484L8.62695 18H7.79199L3.0459 6.75879L3.13379 12.3926V18H2.05273V5.20312H3.48535ZM23.3838 18C23.2783 17.7012 23.2109 17.2588 23.1816 16.6729C22.8125 17.1533 22.3408 17.5254 21.7666 17.7891C21.1982 18.0469 20.5947 18.1758 19.9561 18.1758C19.042 18.1758 18.3008 17.9209 17.7324 17.4111C17.1699 16.9014 16.8887 16.2568 16.8887 15.4775C16.8887 14.5518 17.2725 13.8193 18.04 13.2803C18.8135 12.7412 19.8887 12.4717 21.2656 12.4717H23.1729V11.3906C23.1729 10.7109 22.9619 10.1777 22.54 9.79102C22.124 9.39844 21.5146 9.20215 20.7119 9.20215C19.9795 9.20215 19.373 9.38965 18.8926 9.76465C18.4121 10.1396 18.1719 10.5908 18.1719 11.1182L17.1172 11.1094C17.1172 10.3535 17.4688 9.7002 18.1719 9.14941C18.875 8.59277 19.7393 8.31445 20.7646 8.31445C21.8252 8.31445 22.6602 8.58105 23.2695 9.11426C23.8848 9.6416 24.2012 10.3799 24.2188 11.3291V15.8291C24.2188 16.749 24.3154 17.4375 24.5088 17.8945V18H23.3838ZM20.0791 17.2441C20.7822 17.2441 21.4092 17.0742 21.96 16.7344C22.5166 16.3945 22.9209 15.9404 23.1729 15.3721V13.2803H21.292C20.2432 13.292 19.4229 13.4854 18.8311 13.8604C18.2393 14.2295 17.9434 14.7393 17.9434 15.3896C17.9434 15.9229 18.1396 16.3652 18.5322 16.7168C18.9307 17.0684 19.4463 17.2441 20.0791 17.2441ZM32.7266 15.583C32.7266 15.0615 32.5156 14.6426 32.0938 14.3262C31.6777 14.0098 31.0479 13.7637 30.2041 13.5879C29.3604 13.4062 28.7041 13.2012 28.2354 12.9727C27.7725 12.7383 27.4268 12.4541 27.1982 12.1201C26.9756 11.7861 26.8643 11.3818 26.8643 10.9072C26.8643 10.1572 27.1777 9.53906 27.8047 9.05273C28.4316 8.56055 29.2344 8.31445 30.2129 8.31445C31.2734 8.31445 32.123 8.57812 32.7617 9.10547C33.4062 9.62695 33.7285 10.3096 33.7285 11.1533H32.6738C32.6738 10.5967 32.4395 10.1338 31.9707 9.76465C31.5078 9.39551 30.9219 9.21094 30.2129 9.21094C29.5215 9.21094 28.9648 9.36621 28.543 9.67676C28.127 9.98145 27.9189 10.3799 27.9189 10.8721C27.9189 11.3467 28.0918 11.7158 28.4375 11.9795C28.7891 12.2373 29.4248 12.4746 30.3447 12.6914C31.2705 12.9082 31.9619 13.1396 32.4189 13.3857C32.8818 13.6318 33.2246 13.9277 33.4473 14.2734C33.6699 14.6191 33.7812 15.0381 33.7812 15.5303C33.7812 16.333 33.4561 16.9746 32.8057 17.4551C32.1611 17.9355 31.3174 18.1758 30.2744 18.1758C29.167 18.1758 28.2676 17.9092 27.5762 17.376C26.8906 16.8369 26.5479 16.1572 26.5479 15.3369H27.6025C27.6436 15.9521 27.9014 16.4326 28.376 16.7783C28.8564 17.1182 29.4893 17.2881 30.2744 17.2881C31.0068 17.2881 31.5986 17.127 32.0498 16.8047C32.501 16.4824 32.7266 16.0752 32.7266 15.583ZM37.7891 6.05566V8.49023H39.7578V9.35156H37.7891V15.6885C37.7891 16.2158 37.8828 16.6084 38.0703 16.8662C38.2637 17.124 38.583 17.2529 39.0283 17.2529C39.2041 17.2529 39.4883 17.2236 39.8809 17.165L39.9248 18.0264C39.6494 18.126 39.2744 18.1758 38.7998 18.1758C38.0791 18.1758 37.5547 17.9678 37.2266 17.5518C36.8984 17.1299 36.7344 16.5117 36.7344 15.6973V9.35156H34.9854V8.49023H36.7344V6.05566H37.7891ZM45.6201 18.1758C44.8115 18.1758 44.0791 17.9766 43.4229 17.5781C42.7725 17.1797 42.2656 16.626 41.9023 15.917C41.5391 15.2021 41.3574 14.4023 41.3574 13.5176V13.1396C41.3574 12.2256 41.5332 11.4023 41.8848 10.6699C42.2422 9.9375 42.7373 9.36328 43.3701 8.94727C44.0029 8.52539 44.6885 8.31445 45.4268 8.31445C46.5811 8.31445 47.4951 8.70996 48.1689 9.50098C48.8486 10.2861 49.1885 11.3613 49.1885 12.7266V13.3154H42.4033V13.5176C42.4033 14.5957 42.7109 15.4951 43.3262 16.2158C43.9473 16.9307 44.7266 17.2881 45.6641 17.2881C46.2266 17.2881 46.7217 17.1855 47.1494 16.9805C47.583 16.7754 47.9756 16.4473 48.3271 15.9961L48.9863 16.4971C48.2129 17.6162 47.0908 18.1758 45.6201 18.1758ZM45.4268 9.21094C44.6357 9.21094 43.9678 9.50098 43.4229 10.0811C42.8838 10.6611 42.5557 11.4404 42.4385 12.4189H48.1426V12.3047C48.1133 11.3906 47.8525 10.6465 47.3604 10.0723C46.8682 9.49805 46.2236 9.21094 45.4268 9.21094ZM55.6309 9.38672C55.4082 9.3457 55.1709 9.3252 54.9189 9.3252C54.2627 9.3252 53.7061 9.50977 53.249 9.87891C52.7979 10.2422 52.4756 10.7725 52.2822 11.4697V18H51.2363V8.49023H52.2646L52.2822 10.002C52.8389 8.87695 53.7324 8.31445 54.9629 8.31445C55.2559 8.31445 55.4873 8.35254 55.6572 8.42871L55.6309 9.38672ZM67.5752 5.20312H68.665V14.1943C68.665 15.4072 68.3135 16.374 67.6104 17.0947C66.9131 17.8154 65.9756 18.1758 64.7979 18.1758C63.5557 18.1758 62.6006 17.8506 61.9326 17.2002C61.2646 16.5498 60.9307 15.6416 60.9307 14.4756H62.0117C62.0117 15.4014 62.2549 16.0986 62.7412 16.5674C63.2275 17.0303 63.9131 17.2617 64.7979 17.2617C65.6123 17.2617 66.2744 16.9922 66.7842 16.4531C67.2998 15.9141 67.5635 15.1816 67.5752 14.2559V5.20312ZM75.2744 18.1758C74.4658 18.1758 73.7334 17.9766 73.0771 17.5781C72.4268 17.1797 71.9199 16.626 71.5566 15.917C71.1934 15.2021 71.0117 14.4023 71.0117 13.5176V13.1396C71.0117 12.2256 71.1875 11.4023 71.5391 10.6699C71.8965 9.9375 72.3916 9.36328 73.0244 8.94727C73.6572 8.52539 74.3428 8.31445 75.0811 8.31445C76.2354 8.31445 77.1494 8.70996 77.8232 9.50098C78.5029 10.2861 78.8428 11.3613 78.8428 12.7266V13.3154H72.0576V13.5176C72.0576 14.5957 72.3652 15.4951 72.9805 16.2158C73.6016 16.9307 74.3809 17.2881 75.3184 17.2881C75.8809 17.2881 76.376 17.1855 76.8037 16.9805C77.2373 16.7754 77.6299 16.4473 77.9814 15.9961L78.6406 16.4971C77.8672 17.6162 76.7451 18.1758 75.2744 18.1758ZM75.0811 9.21094C74.29 9.21094 73.6221 9.50098 73.0771 10.0811C72.5381 10.6611 72.21 11.4404 72.0928 12.4189H77.7969V12.3047C77.7676 11.3906 77.5068 10.6465 77.0146 10.0723C76.5225 9.49805 75.8779 9.21094 75.0811 9.21094ZM80.4688 13.1572C80.4688 11.6807 80.7969 10.5059 81.4531 9.63281C82.1152 8.75391 83.0117 8.31445 84.1426 8.31445C85.4258 8.31445 86.4043 8.82129 87.0781 9.83496V4.5H88.124V18H87.1396L87.0957 16.7344C86.4219 17.6953 85.4316 18.1758 84.125 18.1758C83.0293 18.1758 82.1445 17.7363 81.4707 16.8574C80.8027 15.9727 80.4688 14.7803 80.4688 13.2803V13.1572ZM81.5322 13.3418C81.5322 14.5547 81.7754 15.5127 82.2617 16.2158C82.748 16.9131 83.4336 17.2617 84.3184 17.2617C85.6133 17.2617 86.5332 16.6904 87.0781 15.5479V11.083C86.5332 9.84668 85.6191 9.22852 84.3359 9.22852C83.4512 9.22852 82.7627 9.57715 82.2705 10.2744C81.7783 10.9658 81.5322 11.9883 81.5322 13.3418ZM92.0703 18H91.0156V8.49023H92.0703V18ZM90.8311 5.73926C90.8311 5.54004 90.8955 5.37305 91.0244 5.23828C91.1533 5.09766 91.3291 5.02734 91.5518 5.02734C91.7744 5.02734 91.9502 5.09766 92.0791 5.23828C92.2139 5.37305 92.2812 5.54004 92.2812 5.73926C92.2812 5.93848 92.2139 6.10547 92.0791 6.24023C91.9502 6.375 91.7744 6.44238 91.5518 6.44238C91.3291 6.44238 91.1533 6.375 91.0244 6.24023C90.8955 6.10547 90.8311 5.93848 90.8311 5.73926Z" fill="black"/>
<path d="M11.5127 79.2959C11.5127 80.5146 11.2959 81.5781 10.8623 82.4863C10.4346 83.3887 9.82227 84.0713 9.02539 84.5342L11.3545 86.5645L10.6074 87.2324L7.99707 84.9736C7.5166 85.1084 7.02734 85.1758 6.5293 85.1758C5.55664 85.1758 4.68945 84.9355 3.92773 84.4551C3.17188 83.9746 2.58594 83.2949 2.16992 82.416C1.75391 81.5312 1.54297 80.5117 1.53711 79.3574V77.9248C1.53711 76.7588 1.74219 75.7275 2.15234 74.8311C2.56836 73.9287 3.1543 73.2373 3.91016 72.7568C4.66602 72.2705 5.5332 72.0273 6.51172 72.0273C7.50781 72.0273 8.38379 72.2676 9.13965 72.748C9.89551 73.2285 10.4785 73.917 10.8887 74.8135C11.3047 75.71 11.5127 76.7441 11.5127 77.916V79.2959ZM10.4316 77.9072C10.4316 76.3662 10.083 75.1592 9.38574 74.2861C8.68848 73.4131 7.73047 72.9766 6.51172 72.9766C5.32812 72.9766 4.38184 73.416 3.67285 74.2949C2.96973 75.168 2.61816 76.3896 2.61816 77.96V79.2959C2.61816 80.8135 2.9668 82.0176 3.66406 82.9082C4.36719 83.793 5.32227 84.2354 6.5293 84.2354C7.74805 84.2354 8.70312 83.7988 9.39453 82.9258C10.0859 82.0527 10.4316 80.834 10.4316 79.2695V77.9072ZM20.1436 83.7959C19.5107 84.7158 18.5 85.1758 17.1113 85.1758C16.0977 85.1758 15.3271 84.8828 14.7998 84.2969C14.2725 83.7051 14.0029 82.832 13.9912 81.6777V75.4902H15.0371V81.5459C15.0371 83.3564 15.7695 84.2617 17.2344 84.2617C18.7578 84.2617 19.7217 83.6318 20.126 82.3721V75.4902H21.1807V85H20.1611L20.1436 83.7959ZM25.1006 85H24.0459V75.4902H25.1006V85ZM23.8613 72.7393C23.8613 72.54 23.9258 72.373 24.0547 72.2383C24.1836 72.0977 24.3594 72.0273 24.582 72.0273C24.8047 72.0273 24.9805 72.0977 25.1094 72.2383C25.2441 72.373 25.3115 72.54 25.3115 72.7393C25.3115 72.9385 25.2441 73.1055 25.1094 73.2402C24.9805 73.375 24.8047 73.4424 24.582 73.4424C24.3594 73.4424 24.1836 73.375 24.0547 73.2402C23.9258 73.1055 23.8613 72.9385 23.8613 72.7393ZM29.6006 73.0557V75.4902H31.5693V76.3516H29.6006V82.6885C29.6006 83.2158 29.6943 83.6084 29.8818 83.8662C30.0752 84.124 30.3945 84.2529 30.8398 84.2529C31.0156 84.2529 31.2998 84.2236 31.6924 84.165L31.7363 85.0264C31.4609 85.126 31.0859 85.1758 30.6113 85.1758C29.8906 85.1758 29.3662 84.9678 29.0381 84.5518C28.71 84.1299 28.5459 83.5117 28.5459 82.6973V76.3516H26.7969V75.4902H28.5459V73.0557H29.6006ZM37.4316 85.1758C36.623 85.1758 35.8906 84.9766 35.2344 84.5781C34.584 84.1797 34.0771 83.626 33.7139 82.917C33.3506 82.2021 33.1689 81.4023 33.1689 80.5176V80.1396C33.1689 79.2256 33.3447 78.4023 33.6963 77.6699C34.0537 76.9375 34.5488 76.3633 35.1816 75.9473C35.8145 75.5254 36.5 75.3145 37.2383 75.3145C38.3926 75.3145 39.3066 75.71 39.9805 76.501C40.6602 77.2861 41 78.3613 41 79.7266V80.3154H34.2148V80.5176C34.2148 81.5957 34.5225 82.4951 35.1377 83.2158C35.7588 83.9307 36.5381 84.2881 37.4756 84.2881C38.0381 84.2881 38.5332 84.1855 38.9609 83.9805C39.3945 83.7754 39.7871 83.4473 40.1387 82.9961L40.7979 83.4971C40.0244 84.6162 38.9023 85.1758 37.4316 85.1758ZM37.2383 76.2109C36.4473 76.2109 35.7793 76.501 35.2344 77.0811C34.6953 77.6611 34.3672 78.4404 34.25 79.4189H39.9541V79.3047C39.9248 78.3906 39.6641 77.6465 39.1719 77.0723C38.6797 76.498 38.0352 76.2109 37.2383 76.2109ZM47.0029 80.1572C47.0029 78.6689 47.3311 77.4912 47.9873 76.624C48.6494 75.751 49.5459 75.3145 50.6768 75.3145C51.9717 75.3145 52.9561 75.8301 53.6299 76.8613L53.6826 75.4902H54.667V84.8066C54.667 86.0312 54.3242 87.001 53.6387 87.7158C52.9531 88.4307 52.0244 88.7881 50.8525 88.7881C50.1904 88.7881 49.5576 88.6387 48.9541 88.3398C48.3564 88.0469 47.8848 87.6543 47.5391 87.1621L48.1279 86.5293C48.8721 87.4434 49.7568 87.9004 50.7822 87.9004C51.6611 87.9004 52.3467 87.6396 52.8389 87.1182C53.3311 86.6025 53.5859 85.8848 53.6035 84.9648V83.7695C52.9297 84.707 51.9482 85.1758 50.6592 85.1758C49.5576 85.1758 48.6729 84.7363 48.0049 83.8574C47.3369 82.9785 47.0029 81.792 47.0029 80.2979V80.1572ZM48.0664 80.3418C48.0664 81.5547 48.3096 82.5127 48.7959 83.2158C49.2822 83.9131 49.9678 84.2617 50.8525 84.2617C52.1475 84.2617 53.0645 83.6816 53.6035 82.5215V78.1006C53.3574 77.4912 53.0029 77.0283 52.54 76.7119C52.0771 76.3896 51.5205 76.2285 50.8701 76.2285C49.9854 76.2285 49.2969 76.5771 48.8047 77.2744C48.3125 77.9658 48.0664 78.9883 48.0664 80.3418ZM56.8291 80.1045C56.8291 79.1904 57.0049 78.3672 57.3564 77.6348C57.7139 76.9023 58.2148 76.334 58.8594 75.9297C59.5098 75.5195 60.2451 75.3145 61.0654 75.3145C62.3311 75.3145 63.3564 75.7598 64.1416 76.6504C64.9268 77.5352 65.3193 78.71 65.3193 80.1748V80.3945C65.3193 81.3145 65.1406 82.1436 64.7832 82.8818C64.4316 83.6143 63.9336 84.1797 63.2891 84.5781C62.6445 84.9766 61.9092 85.1758 61.083 85.1758C59.8232 85.1758 58.7979 84.7334 58.0068 83.8486C57.2217 82.958 56.8291 81.7803 56.8291 80.3154V80.1045ZM57.8838 80.3945C57.8838 81.5312 58.1768 82.4658 58.7627 83.1982C59.3545 83.9248 60.1279 84.2881 61.083 84.2881C62.0322 84.2881 62.7998 83.9248 63.3857 83.1982C63.9775 82.4658 64.2734 81.502 64.2734 80.3066V80.1045C64.2734 79.3779 64.1387 78.7129 63.8691 78.1094C63.5996 77.5059 63.2217 77.04 62.7354 76.7119C62.249 76.3779 61.6924 76.2109 61.0654 76.2109C60.1279 76.2109 59.3633 76.5801 58.7715 77.3184C58.1797 78.0508 57.8838 79.0117 57.8838 80.2012V80.3945ZM66.9189 80.1045C66.9189 79.1904 67.0947 78.3672 67.4463 77.6348C67.8037 76.9023 68.3047 76.334 68.9492 75.9297C69.5996 75.5195 70.335 75.3145 71.1553 75.3145C72.4209 75.3145 73.4463 75.7598 74.2314 76.6504C75.0166 77.5352 75.4092 78.71 75.4092 80.1748V80.3945C75.4092 81.3145 75.2305 82.1436 74.873 82.8818C74.5215 83.6143 74.0234 84.1797 73.3789 84.5781C72.7344 84.9766 71.999 85.1758 71.1729 85.1758C69.9131 85.1758 68.8877 84.7334 68.0967 83.8486C67.3115 82.958 66.9189 81.7803 66.9189 80.3154V80.1045ZM67.9736 80.3945C67.9736 81.5312 68.2666 82.4658 68.8525 83.1982C69.4443 83.9248 70.2178 84.2881 71.1729 84.2881C72.1221 84.2881 72.8896 83.9248 73.4756 83.1982C74.0674 82.4658 74.3633 81.502 74.3633 80.3066V80.1045C74.3633 79.3779 74.2285 78.7129 73.959 78.1094C73.6895 77.5059 73.3115 77.04 72.8252 76.7119C72.3389 76.3779 71.7822 76.2109 71.1553 76.2109C70.2178 76.2109 69.4531 76.5801 68.8613 77.3184C68.2695 78.0508 67.9736 79.0117 67.9736 80.2012V80.3945ZM77.167 80.1572C77.167 78.6807 77.4951 77.5059 78.1514 76.6328C78.8135 75.7539 79.71 75.3145 80.8408 75.3145C82.124 75.3145 83.1025 75.8213 83.7764 76.835V71.5H84.8223V85H83.8379L83.7939 83.7344C83.1201 84.6953 82.1299 85.1758 80.8232 85.1758C79.7275 85.1758 78.8428 84.7363 78.1689 83.8574C77.501 82.9727 77.167 81.7803 77.167 80.2803V80.1572ZM78.2305 80.3418C78.2305 81.5547 78.4736 82.5127 78.96 83.2158C79.4463 83.9131 80.1318 84.2617 81.0166 84.2617C82.3115 84.2617 83.2314 83.6904 83.7764 82.5479V78.083C83.2314 76.8467 82.3174 76.2285 81.0342 76.2285C80.1494 76.2285 79.4609 76.5771 78.9688 77.2744C78.4766 77.9658 78.2305 78.9883 78.2305 80.3418ZM87.3711 87.3906L86.7471 86.9336C87.2803 86.2188 87.5557 85.4775 87.5732 84.71V83.3477H88.6016V84.4463C88.6016 85.665 88.1914 86.6465 87.3711 87.3906ZM99.8076 76.3867C99.585 76.3457 99.3477 76.3252 99.0957 76.3252C98.4395 76.3252 97.8828 76.5098 97.4258 76.8789C96.9746 77.2422 96.6523 77.7725 96.459 78.4697V85H95.4131V75.4902H96.4414L96.459 77.002C97.0156 75.877 97.9092 75.3145 99.1396 75.3145C99.4326 75.3145 99.6641 75.3525 99.834 75.4287L99.8076 76.3867ZM104.984 85.1758C104.176 85.1758 103.443 84.9766 102.787 84.5781C102.137 84.1797 101.63 83.626 101.267 82.917C100.903 82.2021 100.722 81.4023 100.722 80.5176V80.1396C100.722 79.2256 100.897 78.4023 101.249 77.6699C101.606 76.9375 102.102 76.3633 102.734 75.9473C103.367 75.5254 104.053 75.3145 104.791 75.3145C105.945 75.3145 106.859 75.71 107.533 76.501C108.213 77.2861 108.553 78.3613 108.553 79.7266V80.3154H101.768V80.5176C101.768 81.5957 102.075 82.4951 102.69 83.2158C103.312 83.9307 104.091 84.2881 105.028 84.2881C105.591 84.2881 106.086 84.1855 106.514 83.9805C106.947 83.7754 107.34 83.4473 107.691 82.9961L108.351 83.4971C107.577 84.6162 106.455 85.1758 104.984 85.1758ZM104.791 76.2109C104 76.2109 103.332 76.501 102.787 77.0811C102.248 77.6611 101.92 78.4404 101.803 79.4189H107.507V79.3047C107.478 78.3906 107.217 77.6465 106.725 77.0723C106.232 76.498 105.588 76.2109 104.791 76.2109ZM116.604 85C116.498 84.7012 116.431 84.2588 116.401 83.6729C116.032 84.1533 115.561 84.5254 114.986 84.7891C114.418 85.0469 113.814 85.1758 113.176 85.1758C112.262 85.1758 111.521 84.9209 110.952 84.4111C110.39 83.9014 110.108 83.2568 110.108 82.4775C110.108 81.5518 110.492 80.8193 111.26 80.2803C112.033 79.7412 113.108 79.4717 114.485 79.4717H116.393V78.3906C116.393 77.7109 116.182 77.1777 115.76 76.791C115.344 76.3984 114.734 76.2021 113.932 76.2021C113.199 76.2021 112.593 76.3896 112.112 76.7646C111.632 77.1396 111.392 77.5908 111.392 78.1182L110.337 78.1094C110.337 77.3535 110.688 76.7002 111.392 76.1494C112.095 75.5928 112.959 75.3145 113.984 75.3145C115.045 75.3145 115.88 75.5811 116.489 76.1143C117.104 76.6416 117.421 77.3799 117.438 78.3291V82.8291C117.438 83.749 117.535 84.4375 117.729 84.8945V85H116.604ZM113.299 84.2441C114.002 84.2441 114.629 84.0742 115.18 83.7344C115.736 83.3945 116.141 82.9404 116.393 82.3721V80.2803H114.512C113.463 80.292 112.643 80.4854 112.051 80.8604C111.459 81.2295 111.163 81.7393 111.163 82.3896C111.163 82.9229 111.359 83.3652 111.752 83.7168C112.15 84.0684 112.666 84.2441 113.299 84.2441ZM121.429 85H120.374V71.5H121.429V85ZM125.472 85H124.417V71.5H125.472V85ZM131.352 83.4883L134.129 75.4902H135.263L131.202 86.6172L130.991 87.1094C130.47 88.2637 129.664 88.8408 128.574 88.8408C128.322 88.8408 128.053 88.7998 127.766 88.7178L127.757 87.8477L128.302 87.9004C128.817 87.9004 129.233 87.7715 129.55 87.5137C129.872 87.2617 130.145 86.8252 130.367 86.2041L130.833 84.9209L127.247 75.4902H128.398L131.352 83.4883Z" fill="black"/>
<path d="M10.7773 147.01C10.6309 148.357 10.1475 149.389 9.32715 150.104C8.5127 150.818 7.42578 151.176 6.06641 151.176C5.11719 151.176 4.27637 150.938 3.54395 150.464C2.81738 149.989 2.25488 149.318 1.85645 148.451C1.45801 147.578 1.25586 146.582 1.25 145.463V143.802C1.25 142.665 1.44922 141.657 1.84766 140.778C2.24609 139.899 2.81738 139.223 3.56152 138.748C4.31152 138.268 5.17285 138.027 6.14551 138.027C7.5166 138.027 8.59766 138.399 9.38867 139.144C10.1855 139.882 10.6484 140.904 10.7773 142.211H9.6875C9.41797 140.037 8.2373 138.95 6.14551 138.95C4.98535 138.95 4.05957 139.384 3.36816 140.251C2.68262 141.118 2.33984 142.316 2.33984 143.846V145.41C2.33984 146.887 2.67383 148.064 3.3418 148.943C4.01562 149.822 4.92383 150.262 6.06641 150.262C7.19727 150.262 8.0498 149.992 8.62402 149.453C9.19824 148.908 9.55273 148.094 9.6875 147.01H10.7773ZM19.1621 151C19.0566 150.701 18.9893 150.259 18.96 149.673C18.5908 150.153 18.1191 150.525 17.5449 150.789C16.9766 151.047 16.373 151.176 15.7344 151.176C14.8203 151.176 14.0791 150.921 13.5107 150.411C12.9482 149.901 12.667 149.257 12.667 148.478C12.667 147.552 13.0508 146.819 13.8184 146.28C14.5918 145.741 15.667 145.472 17.0439 145.472H18.9512V144.391C18.9512 143.711 18.7402 143.178 18.3184 142.791C17.9023 142.398 17.293 142.202 16.4902 142.202C15.7578 142.202 15.1514 142.39 14.6709 142.765C14.1904 143.14 13.9502 143.591 13.9502 144.118L12.8955 144.109C12.8955 143.354 13.2471 142.7 13.9502 142.149C14.6533 141.593 15.5176 141.314 16.543 141.314C17.6035 141.314 18.4385 141.581 19.0479 142.114C19.6631 142.642 19.9795 143.38 19.9971 144.329V148.829C19.9971 149.749 20.0938 150.438 20.2871 150.895V151H19.1621ZM15.8574 150.244C16.5605 150.244 17.1875 150.074 17.7383 149.734C18.2949 149.395 18.6992 148.94 18.9512 148.372V146.28H17.0703C16.0215 146.292 15.2012 146.485 14.6094 146.86C14.0176 147.229 13.7217 147.739 13.7217 148.39C13.7217 148.923 13.918 149.365 14.3105 149.717C14.709 150.068 15.2246 150.244 15.8574 150.244ZM23.8115 141.49L23.8467 143.116C24.2041 142.53 24.6494 142.085 25.1826 141.78C25.7158 141.47 26.3047 141.314 26.9492 141.314C27.9688 141.314 28.7275 141.602 29.2256 142.176C29.7236 142.75 29.9756 143.611 29.9814 144.76V151H28.9355V144.751C28.9297 143.901 28.748 143.269 28.3906 142.853C28.0391 142.437 27.4736 142.229 26.6943 142.229C26.0439 142.229 25.4668 142.434 24.9629 142.844C24.4648 143.248 24.0957 143.796 23.8555 144.487V151H22.8096V141.49H23.8115ZM36.6611 146.157C36.6611 144.681 36.9893 143.506 37.6455 142.633C38.3076 141.754 39.2041 141.314 40.335 141.314C41.6182 141.314 42.5967 141.821 43.2705 142.835V137.5H44.3164V151H43.332L43.2881 149.734C42.6143 150.695 41.624 151.176 40.3174 151.176C39.2217 151.176 38.3369 150.736 37.6631 149.857C36.9951 148.973 36.6611 147.78 36.6611 146.28V146.157ZM37.7246 146.342C37.7246 147.555 37.9678 148.513 38.4541 149.216C38.9404 149.913 39.626 150.262 40.5107 150.262C41.8057 150.262 42.7256 149.69 43.2705 148.548V144.083C42.7256 142.847 41.8115 142.229 40.5283 142.229C39.6436 142.229 38.9551 142.577 38.4629 143.274C37.9707 143.966 37.7246 144.988 37.7246 146.342ZM46.5049 146.104C46.5049 145.19 46.6807 144.367 47.0322 143.635C47.3896 142.902 47.8906 142.334 48.5352 141.93C49.1855 141.52 49.9209 141.314 50.7412 141.314C52.0068 141.314 53.0322 141.76 53.8174 142.65C54.6025 143.535 54.9951 144.71 54.9951 146.175V146.395C54.9951 147.314 54.8164 148.144 54.459 148.882C54.1074 149.614 53.6094 150.18 52.9648 150.578C52.3203 150.977 51.585 151.176 50.7588 151.176C49.499 151.176 48.4736 150.733 47.6826 149.849C46.8975 148.958 46.5049 147.78 46.5049 146.315V146.104ZM47.5596 146.395C47.5596 147.531 47.8525 148.466 48.4385 149.198C49.0303 149.925 49.8037 150.288 50.7588 150.288C51.708 150.288 52.4756 149.925 53.0615 149.198C53.6533 148.466 53.9492 147.502 53.9492 146.307V146.104C53.9492 145.378 53.8145 144.713 53.5449 144.109C53.2754 143.506 52.8975 143.04 52.4111 142.712C51.9248 142.378 51.3682 142.211 50.7412 142.211C49.8037 142.211 49.0391 142.58 48.4473 143.318C47.8555 144.051 47.5596 145.012 47.5596 146.201V146.395ZM67.2471 148.583C67.2471 148.062 67.0361 147.643 66.6143 147.326C66.1982 147.01 65.5684 146.764 64.7246 146.588C63.8809 146.406 63.2246 146.201 62.7559 145.973C62.293 145.738 61.9473 145.454 61.7188 145.12C61.4961 144.786 61.3848 144.382 61.3848 143.907C61.3848 143.157 61.6982 142.539 62.3252 142.053C62.9521 141.561 63.7549 141.314 64.7334 141.314C65.7939 141.314 66.6436 141.578 67.2822 142.105C67.9268 142.627 68.249 143.31 68.249 144.153H67.1943C67.1943 143.597 66.96 143.134 66.4912 142.765C66.0283 142.396 65.4424 142.211 64.7334 142.211C64.042 142.211 63.4854 142.366 63.0635 142.677C62.6475 142.981 62.4395 143.38 62.4395 143.872C62.4395 144.347 62.6123 144.716 62.958 144.979C63.3096 145.237 63.9453 145.475 64.8652 145.691C65.791 145.908 66.4824 146.14 66.9395 146.386C67.4023 146.632 67.7451 146.928 67.9678 147.273C68.1904 147.619 68.3018 148.038 68.3018 148.53C68.3018 149.333 67.9766 149.975 67.3262 150.455C66.6816 150.936 65.8379 151.176 64.7949 151.176C63.6875 151.176 62.7881 150.909 62.0967 150.376C61.4111 149.837 61.0684 149.157 61.0684 148.337H62.123C62.1641 148.952 62.4219 149.433 62.8965 149.778C63.377 150.118 64.0098 150.288 64.7949 150.288C65.5273 150.288 66.1191 150.127 66.5703 149.805C67.0215 149.482 67.2471 149.075 67.2471 148.583ZM72.3096 139.056V141.49H74.2783V142.352H72.3096V148.688C72.3096 149.216 72.4033 149.608 72.5908 149.866C72.7842 150.124 73.1035 150.253 73.5488 150.253C73.7246 150.253 74.0088 150.224 74.4014 150.165L74.4453 151.026C74.1699 151.126 73.7949 151.176 73.3203 151.176C72.5996 151.176 72.0752 150.968 71.7471 150.552C71.4189 150.13 71.2549 149.512 71.2549 148.697V142.352H69.5059V141.49H71.2549V139.056H72.3096ZM82.5752 149.796C81.9424 150.716 80.9316 151.176 79.543 151.176C78.5293 151.176 77.7588 150.883 77.2314 150.297C76.7041 149.705 76.4346 148.832 76.4229 147.678V141.49H77.4688V147.546C77.4688 149.356 78.2012 150.262 79.666 150.262C81.1895 150.262 82.1533 149.632 82.5576 148.372V141.49H83.6123V151H82.5928L82.5752 149.796ZM87.1104 151V142.352H85.5371V141.49H87.1104V140.339C87.1104 139.366 87.3564 138.619 87.8486 138.098C88.3467 137.576 89.0381 137.315 89.9229 137.315C90.3213 137.315 90.6934 137.365 91.0391 137.465L90.96 138.344C90.667 138.273 90.3477 138.238 90.002 138.238C89.4219 138.238 88.9707 138.42 88.6484 138.783C88.3262 139.141 88.165 139.65 88.165 140.312V141.49H90.4326V142.352H88.165V151H87.1104ZM93.0693 151V142.352H91.4961V141.49H93.0693V140.339C93.0693 139.366 93.3154 138.619 93.8076 138.098C94.3057 137.576 94.9971 137.315 95.8818 137.315C96.2803 137.315 96.6523 137.365 96.998 137.465L96.9189 138.344C96.626 138.273 96.3066 138.238 95.9609 138.238C95.3809 138.238 94.9297 138.42 94.6074 138.783C94.2852 139.141 94.124 139.65 94.124 140.312V141.49H96.3916V142.352H94.124V151H93.0693Z" fill="black"/>
<path d="M3.21875 213H2.1377V200.203H3.21875V213ZM12.4648 201.056V203.49H14.4336V204.352H12.4648V210.688C12.4648 211.216 12.5586 211.608 12.7461 211.866C12.9395 212.124 13.2588 212.253 13.7041 212.253C13.8799 212.253 14.1641 212.224 14.5566 212.165L14.6006 213.026C14.3252 213.126 13.9502 213.176 13.4756 213.176C12.7549 213.176 12.2305 212.968 11.9023 212.552C11.5742 212.13 11.4102 211.512 11.4102 210.697V204.352H9.66113V203.49H11.4102V201.056H12.4648ZM15.8574 208.104C15.8574 207.19 16.0332 206.367 16.3848 205.635C16.7422 204.902 17.2432 204.334 17.8877 203.93C18.5381 203.52 19.2734 203.314 20.0938 203.314C21.3594 203.314 22.3848 203.76 23.1699 204.65C23.9551 205.535 24.3477 206.71 24.3477 208.175V208.395C24.3477 209.314 24.1689 210.144 23.8115 210.882C23.46 211.614 22.9619 212.18 22.3174 212.578C21.6729 212.977 20.9375 213.176 20.1113 213.176C18.8516 213.176 17.8262 212.733 17.0352 211.849C16.25 210.958 15.8574 209.78 15.8574 208.315V208.104ZM16.9121 208.395C16.9121 209.531 17.2051 210.466 17.791 211.198C18.3828 211.925 19.1562 212.288 20.1113 212.288C21.0605 212.288 21.8281 211.925 22.4141 211.198C23.0059 210.466 23.3018 209.502 23.3018 208.307V208.104C23.3018 207.378 23.167 206.713 22.8975 206.109C22.6279 205.506 22.25 205.04 21.7637 204.712C21.2773 204.378 20.7207 204.211 20.0938 204.211C19.1562 204.211 18.3916 204.58 17.7998 205.318C17.208 206.051 16.9121 207.012 16.9121 208.201V208.395ZM32.6445 211.796C32.0117 212.716 31.001 213.176 29.6123 213.176C28.5986 213.176 27.8281 212.883 27.3008 212.297C26.7734 211.705 26.5039 210.832 26.4922 209.678V203.49H27.5381V209.546C27.5381 211.356 28.2705 212.262 29.7354 212.262C31.2588 212.262 32.2227 211.632 32.627 210.372V203.49H33.6816V213H32.6621L32.6445 211.796ZM39.9395 212.288C40.6719 212.288 41.2842 212.083 41.7764 211.673C42.2744 211.257 42.5439 210.721 42.585 210.064H43.5957C43.5664 210.645 43.3848 211.175 43.0508 211.655C42.7168 212.13 42.2715 212.502 41.7148 212.771C41.1641 213.041 40.5723 213.176 39.9395 213.176C38.6914 213.176 37.7012 212.742 36.9688 211.875C36.2422 211.008 35.8789 209.842 35.8789 208.377V208.061C35.8789 207.123 36.043 206.294 36.3711 205.573C36.6992 204.853 37.168 204.296 37.7773 203.903C38.3926 203.511 39.1104 203.314 39.9307 203.314C40.9736 203.314 41.832 203.625 42.5059 204.246C43.1855 204.867 43.5488 205.685 43.5957 206.698H42.585C42.5381 205.954 42.2686 205.354 41.7764 204.896C41.29 204.439 40.6748 204.211 39.9307 204.211C38.9814 204.211 38.2432 204.554 37.7158 205.239C37.1943 205.925 36.9336 206.886 36.9336 208.122V208.43C36.9336 209.643 37.1943 210.589 37.7158 211.269C38.2432 211.948 38.9844 212.288 39.9395 212.288ZM46.751 205.099C47.0967 204.53 47.5391 204.091 48.0781 203.78C48.6172 203.47 49.2061 203.314 49.8447 203.314C50.8643 203.314 51.623 203.602 52.1211 204.176C52.6191 204.75 52.8711 205.611 52.877 206.76V213H51.8311V206.751C51.8252 205.901 51.6436 205.269 51.2861 204.853C50.9346 204.437 50.3691 204.229 49.5898 204.229C48.9395 204.229 48.3623 204.434 47.8584 204.844C47.3604 205.248 46.9912 205.796 46.751 206.487V213H45.7051V199.5H46.751V205.099ZM59.2666 213.176C58.458 213.176 57.7256 212.977 57.0693 212.578C56.4189 212.18 55.9121 211.626 55.5488 210.917C55.1855 210.202 55.0039 209.402 55.0039 208.518V208.14C55.0039 207.226 55.1797 206.402 55.5312 205.67C55.8887 204.938 56.3838 204.363 57.0166 203.947C57.6494 203.525 58.335 203.314 59.0732 203.314C60.2275 203.314 61.1416 203.71 61.8154 204.501C62.4951 205.286 62.835 206.361 62.835 207.727V208.315H56.0498V208.518C56.0498 209.596 56.3574 210.495 56.9727 211.216C57.5938 211.931 58.373 212.288 59.3105 212.288C59.873 212.288 60.3682 212.186 60.7959 211.98C61.2295 211.775 61.6221 211.447 61.9736 210.996L62.6328 211.497C61.8594 212.616 60.7373 213.176 59.2666 213.176ZM59.0732 204.211C58.2822 204.211 57.6143 204.501 57.0693 205.081C56.5303 205.661 56.2021 206.44 56.085 207.419H61.7891V207.305C61.7598 206.391 61.499 205.646 61.0068 205.072C60.5146 204.498 59.8701 204.211 59.0732 204.211ZM64.4609 208.157C64.4609 206.681 64.7891 205.506 65.4453 204.633C66.1074 203.754 67.0039 203.314 68.1348 203.314C69.418 203.314 70.3965 203.821 71.0703 204.835V199.5H72.1162V213H71.1318L71.0879 211.734C70.4141 212.695 69.4238 213.176 68.1172 213.176C67.0215 213.176 66.1367 212.736 65.4629 211.857C64.7949 210.973 64.4609 209.78 64.4609 208.28V208.157ZM65.5244 208.342C65.5244 209.555 65.7676 210.513 66.2539 211.216C66.7402 211.913 67.4258 212.262 68.3105 212.262C69.6055 212.262 70.5254 211.69 71.0703 210.548V206.083C70.5254 204.847 69.6113 204.229 68.3281 204.229C67.4434 204.229 66.7549 204.577 66.2627 205.274C65.7705 205.966 65.5244 206.988 65.5244 208.342ZM80.4395 213H79.3848V203.49H80.4395V213ZM79.2002 200.739C79.2002 200.54 79.2646 200.373 79.3936 200.238C79.5225 200.098 79.6982 200.027 79.9209 200.027C80.1436 200.027 80.3193 200.098 80.4482 200.238C80.583 200.373 80.6504 200.54 80.6504 200.739C80.6504 200.938 80.583 201.105 80.4482 201.24C80.3193 201.375 80.1436 201.442 79.9209 201.442C79.6982 201.442 79.5225 201.375 79.3936 201.24C79.2646 201.105 79.2002 200.938 79.2002 200.739ZM84.9395 201.056V203.49H86.9082V204.352H84.9395V210.688C84.9395 211.216 85.0332 211.608 85.2207 211.866C85.4141 212.124 85.7334 212.253 86.1787 212.253C86.3545 212.253 86.6387 212.224 87.0312 212.165L87.0752 213.026C86.7998 213.126 86.4248 213.176 85.9502 213.176C85.2295 213.176 84.7051 212.968 84.377 212.552C84.0488 212.13 83.8848 211.512 83.8848 210.697V204.352H82.1357V203.49H83.8848V201.056H84.9395Z" fill="black"/>
</svg>
